<?xml version="1.0" encoding="UTF-8"?>
<svg id="Layer_1" data-name="Layer 1" xmlns="http://www.w3.org/2000/svg" xmlns:xlink="http://www.w3.org/1999/xlink" viewBox="0 0 213.98 211.05">
  <defs>
    <style>
      .cls-1 {
        clip-path: url(#clippath-2);
      }

      .cls-2 {
        fill: #8686a5;
      }

      .cls-2, .cls-3, .cls-4, .cls-5, .cls-6, .cls-7 {
        stroke-width: 0px;
      }

      .cls-8 {
        clip-path: url(#clippath-6);
      }

      .cls-3 {
        fill: none;
      }

      .cls-4 {
        fill: #31d8ff;
      }

      .cls-9 {
        clip-path: url(#clippath-1);
      }

      .cls-10 {
        clip-path: url(#clippath-4);
      }

      .cls-5 {
        fill: #1174a5;
      }

      .cls-6 {
        fill: #0ca6e2;
      }

      .cls-11 {
        clip-path: url(#clippath);
      }

      .cls-7 {
        fill: #322e89;
      }

      .cls-12 {
        clip-path: url(#clippath-3);
      }

      .cls-13 {
        clip-path: url(#clippath-5);
      }
    </style>
    <clipPath id="clippath">
      <rect class="cls-3" y="108.04" width="95.14" height="27.36"/>
    </clipPath>
    <clipPath id="clippath-1">
      <rect class="cls-3" x="204.57" y="104.13" width="9.41" height="7.81"/>
    </clipPath>
    <clipPath id="clippath-2">
      <rect class="cls-3" x="87.33" y="186.2" width="85.98" height="24.84"/>
    </clipPath>
    <clipPath id="clippath-3">
      <rect class="cls-3" y="80.68" width="63.87" height="23.45"/>
    </clipPath>
    <clipPath id="clippath-4">
      <rect class="cls-3" x="114.68" width="11.72" height="6.42"/>
    </clipPath>
    <clipPath id="clippath-5">
      <rect class="cls-3" x="99.05" width="11.72" height="6.42"/>
    </clipPath>
    <clipPath id="clippath-6">
      <rect class="cls-3" x="79.51" width="15.63" height="10.33"/>
    </clipPath>
  </defs>
  <g class="cls-11">
    <path class="cls-7" d="M94.88,116.87c-.92-5.36-5.98-8.96-11.33-8.04-35.97,6.21-66.47,3.88-83.49,1.46.27,4.86.87,9.62,1.77,14.28.61,3.2,3.25,5.62,6.47,5.91,9.86.92,23.62,1.89,30.45,1.96,13.07.14,29.08-.9,48.13-4.18,5.33-.93,8.91-6.01,8-11.37h0ZM85.05,124.66c-3.52-.05-6.35-2.95-6.32-6.47.05-3.54,2.93-6.38,6.46-6.35,3.52.05,6.35,2.95,6.3,6.47-.03,3.56-2.92,6.4-6.44,6.35Z"/>
  </g>
  <path class="cls-4" d="M197.32,68.85c0,.92-.32,1.71-.98,2.35-.64.66-1.42.98-2.33.98s-1.71-.32-2.35-.98c-.66-.64-.98-1.44-.98-2.35s.32-1.71.98-2.37,1.44-.98,2.35-.98,1.69.34,2.33.98.98,1.45.98,2.37Z"/>
  <path class="cls-4" d="M211.99,85.25c0,.99-.35,1.85-1.05,2.53-.7.7-1.54,1.05-2.52,1.05s-1.83-.35-2.53-1.05-1.04-1.54-1.04-2.53.35-1.83,1.04-2.53c.7-.7,1.54-1.05,2.53-1.05s1.82.35,2.52,1.05c.71.7,1.05,1.54,1.05,2.53Z"/>
  <path class="cls-4" d="M206.02,60.51c0,.78-.26,1.44-.81,1.99s-1.21.82-1.99.82-1.42-.27-1.97-.82-.82-1.21-.82-1.99.27-1.44.82-1.99,1.21-.82,1.97-.82,1.44.27,1.99.82.81,1.21.81,1.99Z"/>
  <path class="cls-4" d="M181.52,73.88c.64.09,1.25.32,1.8.67.55.34,1.03.78,1.4,1.31s.66,1.13.81,1.76c.14.64.16,1.3.06,1.94-.11.66-.32,1.25-.67,1.82-.35.55-.78,1.03-1.31,1.4-.53.39-1.12.66-1.76.81-.62.16-1.27.16-1.92.06-.64-.09-1.24-.32-1.8-.67-.55-.34-1.03-.78-1.4-1.31s-.66-1.13-.81-1.76c-.14-.64-.16-1.3-.06-1.94.11-.66.34-1.25.67-1.82.35-.55.78-1.03,1.31-1.4.53-.39,1.12-.66,1.76-.81s1.28-.16,1.92-.06Z"/>
  <path class="cls-6" d="M168.91,91.49c0,.82-.16,1.62-.48,2.38-.3.76-.76,1.44-1.35,2.03-.58.58-1.25,1.03-2.01,1.35-.75.32-1.54.48-2.37.48s-1.62-.16-2.38-.48-1.44-.76-2.01-1.35c-.58-.59-1.03-1.27-1.35-2.03s-.48-1.56-.48-2.38.16-1.62.48-2.4c.32-.76.76-1.44,1.35-2.01s1.25-1.04,2.01-1.36c.76-.3,1.56-.48,2.38-.48s1.62.16,2.37.48c.76.32,1.44.78,2.01,1.36s1.04,1.25,1.35,2.01c.32.78.48,1.57.48,2.4Z"/>
  <g class="cls-9">
    <path class="cls-5" d="M213.91,108.03c0,.98-.34,1.8-1.03,2.49-.67.69-1.5,1.03-2.47,1.03s-1.78-.34-2.46-1.03c-.69-.69-1.03-1.51-1.03-2.49s.34-1.78,1.03-2.47c.67-.69,1.5-1.03,2.46-1.03s1.8.34,2.47,1.03c.69.69,1.03,1.51,1.03,2.47Z"/>
  </g>
  <path class="cls-5" d="M146.77,101.79c0,1.01-.2,1.97-.58,2.88-.38.93-.92,1.76-1.63,2.46-.7.71-1.51,1.27-2.44,1.65-.92.38-1.88.57-2.87.57s-1.97-.18-2.88-.57c-.93-.38-1.74-.93-2.44-1.65-.7-.7-1.25-1.53-1.63-2.46-.38-.92-.58-1.88-.58-2.88s.2-1.97.58-2.9.93-1.74,1.63-2.46c.7-.7,1.51-1.25,2.44-1.63.92-.38,1.88-.58,2.88-.58s1.96.2,2.87.58c.93.38,1.74.93,2.44,1.63s1.25,1.53,1.63,2.46.58,1.89.58,2.9Z"/>
  <path class="cls-2" d="M112.97,105.15c1.03.2,1.97.59,2.84,1.17.89.57,1.6,1.3,2.2,2.17.58.87.98,1.82,1.19,2.84.21,1.04.21,2.06.02,3.1-.2,1.03-.58,1.99-1.16,2.86-.57.89-1.3,1.62-2.15,2.2-.87.59-1.82.99-2.84,1.21s-2.05.21-3.07.02c-1.04-.2-1.99-.58-2.86-1.16s-1.6-1.3-2.19-2.17c-.59-.87-.99-1.83-1.21-2.86s-.21-2.06-.02-3.08c.2-1.04.58-1.99,1.16-2.87.58-.87,1.3-1.6,2.17-2.2.85-.58,1.8-.99,2.83-1.21,1.03-.2,2.06-.21,3.08-.02h0Z"/>
  <path class="cls-7" d="M139.76,135.53c-1.35-6.17-7.86-9.68-13.83-7.68-69.98,23.51-120.02,8.84-120.02,8.84,0,0-.16.21-.37.58,1.88,6.01,4.27,11.8,7.15,17.31,1.68,3.2,4.73,5.5,8.29,6.08.03,0,.05,0,.06.02,7.01,1.14,53.97,4.9,110.88-12.61,5.5-1.69,9.05-6.93,7.85-12.54h0ZM129.72,144.37c-3.79.21-7.02-2.7-7.22-6.51-.21-3.8,2.69-7.06,6.47-7.25,3.77-.21,7.01,2.7,7.2,6.51.21,3.8-2.67,7.04-6.46,7.25h0Z"/>
  <path class="cls-6" d="M196.62,102.04c-3.27.71-6.23-1.94-5.87-5.28.23-2.03,1.74-3.72,3.72-4.17,3.27-.71,6.23,1.94,5.87,5.28-.21,2.03-1.74,3.72-3.71,4.17Z"/>
  <path class="cls-5" d="M186.49,110.65c.05.94-.09,1.88-.39,2.78-.32.9-.8,1.71-1.42,2.42-.64.71-1.39,1.28-2.24,1.69s-1.76.64-2.7.69c-.94.06-1.88-.07-2.76-.39-.9-.3-1.69-.8-2.42-1.42-.7-.64-1.27-1.39-1.68-2.24-.39-.87-.64-1.77-.69-2.72-.05-.96.07-1.89.39-2.78.3-.9.8-1.71,1.42-2.42.64-.7,1.37-1.27,2.23-1.68.87-.41,1.77-.64,2.72-.7.94-.05,1.86.09,2.76.39.9.32,1.69.8,2.4,1.44.71.64,1.27,1.39,1.68,2.24s.64,1.77.7,2.72v-.02Z"/>
  <path class="cls-2" d="M157.41,115.7c1.14.16,2.21.53,3.22,1.13,1.01.58,1.85,1.35,2.55,2.28.7.92,1.21,1.96,1.5,3.07.29,1.13.37,2.28.21,3.43-.16,1.14-.53,2.23-1.12,3.24s-1.35,1.86-2.26,2.56c-.93.7-1.96,1.21-3.07,1.5-1.13.3-2.26.37-3.4.21-1.16-.16-2.23-.53-3.24-1.12-.99-.59-1.85-1.35-2.55-2.28s-1.21-1.96-1.5-3.08-.37-2.26-.2-3.42c.16-1.16.52-2.23,1.1-3.24.59-1.01,1.35-1.86,2.28-2.58.92-.7,1.94-1.19,3.06-1.5,1.13-.29,2.26-.37,3.42-.21h0Z"/>
  <path class="cls-7" d="M181.97,142.62c-2.6-5.76-9.64-7.72-15.13-4.61-56.76,32.26-117.07,31.98-146.62,28.88,3.27,4.61,6.92,8.95,10.87,12.96,3.77,3.84,8.82,6.15,14.18,6.55,28.15,2.06,79.11-.21,131.64-29.89,4.99-2.83,7.39-8.68,5.05-13.89h.02ZM174,153.37c-3.65.99-7.42-1.16-8.41-4.84-1.01-3.66,1.16-7.45,4.81-8.46,3.65-.99,7.42,1.17,8.41,4.84.99,3.68-1.16,7.47-4.81,8.46Z"/>
  <path class="cls-2" d="M200.63,134.89c-4.35,1.67-9.1-1.05-9.87-5.68-.57-3.4,1.37-6.84,4.59-8.08,4.36-1.67,9.1,1.07,9.87,5.68.58,3.42-1.37,6.84-4.59,8.08Z"/>
  <path class="cls-7" d="M203.24,143.53c-5.44,13.37-13.51,25.38-23.6,35.36-36.55,21.97-74.97,26.81-99.3,27.25-11.9-2.97-22.98-7.99-32.87-14.64,15.01,1.59,81.66,5.8,139.87-35.28,5.12-3.61,11.71-10.99,15.9-12.68h0Z"/>
  <g class="cls-1">
    <path class="cls-7" d="M172.74,187.79c-10.52,12.17-42.03,29.4-83.36,21.04,19.35,1.59,56.68-6.19,83.36-21.04Z"/>
  </g>
  <g class="cls-12">
    <path class="cls-7" d="M62.3,91.39c-.46-5.42-5.19-9.43-10.6-8.98-19.92,1.68-35.95,1.1-48.35-.37-1.14,5.04-1.92,10.19-2.32,15.46-.16,2.29,1.5,4.3,3.75,4.52.09.02.16.02.25.03,13.02,1.27,29.07,1.6,48.32-.03,5.39-.44,9.41-5.21,8.95-10.64h0ZM58.8,92.56c-.34,3.52-3.47,6.1-6.96,5.76-3.51-.34-6.08-3.47-5.74-6.99s3.47-6.1,6.97-5.76c3.5.34,6.06,3.47,5.73,6.99Z"/>
  </g>
  <path class="cls-4" d="M163.51,54.14c.98.09,1.78.53,2.42,1.3s.89,1.63.8,2.63c-.09.98-.52,1.78-1.28,2.42s-1.63.9-2.61.81c-.98-.11-1.78-.53-2.42-1.3s-.89-1.63-.8-2.63c.09-.98.52-1.78,1.28-2.42.76-.64,1.63-.9,2.61-.81Z"/>
  <path class="cls-4" d="M146.93,62.89c.58.16,1.1.39,1.57.76s.87.81,1.16,1.31c.3.52.5,1.08.58,1.67.07.59.05,1.19-.11,1.76-.16.58-.41,1.12-.78,1.59-.35.48-.8.87-1.31,1.16-.5.3-1.05.5-1.65.58s-1.17.05-1.76-.11c-.57-.16-1.1-.41-1.57-.78-.48-.35-.85-.8-1.16-1.31-.29-.52-.48-1.07-.57-1.67s-.05-1.17.11-1.76.41-1.1.76-1.59c.37-.48.81-.85,1.31-1.16.52-.3,1.07-.48,1.67-.58.58-.07,1.17-.03,1.74.12Z"/>
  <path class="cls-6" d="M124.29,71.55c.7.07,1.36.27,1.99.61.62.32,1.16.76,1.6,1.31.46.55.78,1.16.98,1.83.21.69.27,1.37.21,2.08-.06.71-.27,1.37-.59,2-.34.62-.78,1.16-1.31,1.62-.55.44-1.16.78-1.83.98-.67.21-1.36.27-2.06.21-.7-.07-1.37-.27-2-.61-.61-.32-1.14-.76-1.6-1.31-.44-.55-.78-1.16-.98-1.83-.21-.69-.27-1.37-.21-2.08.07-.7.27-1.37.61-2,.32-.62.76-1.16,1.31-1.62.53-.44,1.14-.78,1.83-.98.67-.21,1.36-.27,2.06-.21h0Z"/>
  <path class="cls-5" d="M101.15,78.36c.87.09,1.68.34,2.44.75.78.41,1.44.94,1.99,1.62.55.69.94,1.44,1.21,2.28.26.82.34,1.68.26,2.55-.09.87-.34,1.68-.75,2.46-.39.76-.94,1.44-1.62,1.99s-1.42.96-2.24,1.21c-.82.26-1.68.35-2.55.26-.85-.09-1.68-.34-2.44-.75-.76-.39-1.42-.94-1.97-1.62s-.96-1.42-1.21-2.26c-.26-.84-.34-1.69-.26-2.55.09-.87.34-1.69.73-2.46.41-.78.94-1.44,1.62-1.99.67-.57,1.42-.96,2.26-1.22.82-.26,1.68-.34,2.53-.26Z"/>
  <path class="cls-2" d="M79.33,82.26c1.01.3,1.91.78,2.72,1.44s1.46,1.44,1.96,2.35c.5.93.81,1.91.92,2.95s.02,2.05-.27,3.06c-.3,1.01-.78,1.91-1.44,2.72-.64.81-1.44,1.46-2.33,1.97-.92.5-1.89.81-2.93.92-1.03.11-2.05.02-3.04-.27-1.01-.3-1.91-.78-2.72-1.44s-1.45-1.44-1.96-2.35c-.48-.92-.8-1.91-.9-2.95-.12-1.04-.03-2.05.27-3.06.29-1.01.76-1.91,1.42-2.72s1.44-1.46,2.35-1.97c.9-.5,1.88-.81,2.92-.92s2.05-.02,3.04.27h0Z"/>
  <path class="cls-7" d="M40.41,55.4c-10.06.48-19.05.38-27.02-.07-3.07,5.68-5.64,11.69-7.63,17.95,10.19.89,22,1.21,35.52.57,5.09-.25,9-4.57,8.75-9.66s-4.55-9.02-9.62-8.78ZM46.72,65.15c-.44,3.29-3.45,5.59-6.72,5.16-3.29-.44-5.57-3.47-5.14-6.76.44-3.29,3.47-5.6,6.74-5.14,3.27.43,5.57,3.45,5.13,6.74Z"/>
  <path class="cls-4" d="M136.6,41.57c.53.16,1.01.43,1.45.78.43.37.78.78,1.04,1.28.26.48.43,1.03.48,1.57.06.57,0,1.12-.16,1.65-.16.53-.43,1.03-.78,1.45-.35.44-.78.78-1.27,1.05-.48.26-1.03.43-1.57.48-.57.06-1.1,0-1.63-.16-.53-.16-1.03-.43-1.45-.78-.43-.37-.78-.78-1.04-1.28-.27-.48-.43-1.03-.48-1.57-.05-.57,0-1.12.16-1.65.16-.53.41-1.03.76-1.45.37-.44.78-.78,1.28-1.05.48-.26,1.01-.43,1.57-.48.55-.06,1.1,0,1.63.16Z"/>
  <path class="cls-6" d="M111.41,47.74c.66.07,1.27.29,1.85.62.57.34,1.05.76,1.45,1.3.39.52.69,1.12.85,1.76s.21,1.28.12,1.94-.29,1.28-.62,1.85c-.34.58-.76,1.07-1.28,1.46-.53.41-1.12.7-1.76.87-.62.16-1.28.21-1.94.12s-1.27-.3-1.83-.64c-.58-.32-1.07-.76-1.46-1.28-.39-.53-.69-1.12-.85-1.76s-.21-1.3-.12-1.96.3-1.27.62-1.85c.34-.58.76-1.07,1.28-1.46.53-.39,1.12-.69,1.76-.85s1.28-.21,1.94-.12h0Z"/>
  <path class="cls-5" d="M87.75,52.22c.81.11,1.57.37,2.28.78s1.3.94,1.78,1.59c.5.66.85,1.37,1.05,2.17.21.78.26,1.59.16,2.4s-.37,1.57-.76,2.28c-.41.7-.94,1.31-1.59,1.8-.64.5-1.36.85-2.15,1.05-.78.21-1.57.27-2.38.16-.81-.11-1.57-.37-2.28-.78-.7-.39-1.3-.93-1.78-1.59-.5-.64-.85-1.36-1.05-2.15-.21-.8-.26-1.59-.16-2.4s.37-1.57.78-2.28c.39-.71.93-1.31,1.57-1.8.66-.5,1.36-.85,2.15-1.07.78-.21,1.59-.26,2.38-.16Z"/>
  <path class="cls-2" d="M66.7,56.99c.81.27,1.56.69,2.21,1.27.66.57,1.17,1.25,1.56,2.03s.61,1.6.67,2.47-.05,1.71-.32,2.53-.7,1.57-1.27,2.23c-.58.66-1.25,1.17-2.03,1.57-.76.38-1.59.61-2.46.67-.85.06-1.71-.06-2.53-.34-.81-.27-1.56-.7-2.21-1.27-.64-.57-1.16-1.25-1.56-2.03-.38-.78-.61-1.6-.67-2.47s.05-1.71.34-2.53c.27-.82.69-1.57,1.27-2.23.57-.66,1.24-1.17,2.01-1.57.78-.38,1.59-.61,2.46-.67s1.71.05,2.53.34Z"/>
  <path class="cls-7" d="M36.99,33.76c-2.75-.05-5.41-.12-7.95-.25-4.4,4.73-8.38,9.87-11.86,15.35,5.98.58,12.52.94,19.58,1.04,4.44.06,8.09-3.5,8.15-7.97.06-4.46-3.5-8.12-7.92-8.18h0ZM41.97,42.61c-.57,2.86-3.31,4.7-6.15,4.14-2.83-.55-4.67-3.31-4.12-6.17.57-2.84,3.31-4.7,6.15-4.14s4.69,3.33,4.12,6.17Z"/>
  <path class="cls-4" d="M127.65,24.32c.94.37,1.63,1.01,2.06,1.94.43.93.46,1.86.11,2.83s-.99,1.65-1.92,2.08c-.92.43-1.86.46-2.81.11-.96-.35-1.65-.99-2.08-1.92-.41-.93-.46-1.88-.11-2.84.37-.94,1.01-1.65,1.92-2.08.93-.43,1.86-.46,2.83-.11Z"/>
  <path class="cls-6" d="M105.74,29.85c.57.11,1.1.34,1.57.66.48.32.89.71,1.21,1.21.32.48.53,1.01.66,1.57.11.57.11,1.14,0,1.71s-.32,1.1-.64,1.59c-.32.48-.73.89-1.21,1.21-.48.32-1.01.55-1.57.66-.57.12-1.13.12-1.69,0-.58-.11-1.1-.32-1.59-.64-.48-.34-.87-.73-1.19-1.21-.34-.48-.55-1.03-.66-1.59-.12-.57-.12-1.14,0-1.71.11-.57.32-1.1.64-1.57.32-.48.71-.9,1.21-1.22.48-.32.99-.53,1.57-.66.57-.11,1.13-.11,1.69,0h0Z"/>
  <path class="cls-5" d="M85.13,32.49c.69.14,1.35.39,1.94.8.58.39,1.08.9,1.48,1.48.39.59.66,1.25.8,1.96.14.69.16,1.39.02,2.09s-.41,1.36-.81,1.96-.89,1.08-1.46,1.48c-.59.39-1.24.67-1.94.81s-1.39.14-2.09,0-1.35-.39-1.94-.8-1.08-.89-1.48-1.48-.67-1.25-.81-1.94c-.14-.7-.14-1.4,0-2.1s.39-1.36.8-1.96.89-1.08,1.48-1.48,1.24-.67,1.94-.81c.69-.14,1.39-.14,2.09,0h-.02Z"/>
  <path class="cls-2" d="M63.32,34.31c.78.3,1.46.76,2.06,1.36s1.05,1.27,1.39,2.05c.32.78.48,1.59.48,2.42.02.84-.14,1.65-.46,2.44-.3.78-.76,1.46-1.36,2.06-.58.61-1.27,1.07-2.03,1.39-.78.34-1.57.5-2.42.5-.84.02-1.65-.14-2.42-.46s-1.46-.76-2.06-1.36-1.07-1.28-1.39-2.05c-.32-.78-.48-1.59-.5-2.42,0-.85.16-1.67.48-2.44.3-.78.76-1.46,1.35-2.06.59-.61,1.27-1.07,2.05-1.4.76-.32,1.57-.48,2.42-.5.84,0,1.65.16,2.42.48h0Z"/>
  <path class="cls-2" d="M47.45,19.56c-.26,4.17-3.84,7.33-8,7.07-1.05-.07-2.09-.16-3.11-.23,3.48-3.08,7.16-5.94,11.04-8.55.09.55.11,1.13.07,1.71h0Z"/>
  <path class="cls-4" d="M123.24,11.05c.89.37,1.5,1.01,1.85,1.89s.34,1.77-.03,2.65c-.38.87-1.01,1.5-1.89,1.85s-1.77.35-2.64-.03-1.5-1.01-1.85-1.91c-.35-.89-.34-1.77.03-2.64.38-.89,1.01-1.5,1.89-1.86.89-.35,1.77-.34,2.64.05Z"/>
  <path class="cls-6" d="M103.16,11.47c.52.14,1.01.37,1.44.69.44.32.8.71,1.07,1.19.29.46.48.96.55,1.51.07.53.05,1.07-.07,1.59-.14.53-.37,1.03-.69,1.45-.32.44-.71.8-1.17,1.08-.48.27-.96.46-1.51.53-.53.09-1.05.06-1.59-.07-.52-.12-1.01-.35-1.44-.69-.44-.32-.8-.71-1.08-1.17-.27-.48-.46-.98-.53-1.51s-.05-1.07.07-1.6c.14-.52.37-1.01.69-1.45.32-.43.71-.8,1.17-1.07.48-.29.96-.46,1.51-.55.53-.07,1.05-.05,1.59.07Z"/>
  <path class="cls-5" d="M83.75,12.96c.64.16,1.24.44,1.77.84s.98.89,1.31,1.46c.35.57.57,1.19.66,1.85.11.67.07,1.33-.09,1.97-.16.66-.44,1.25-.84,1.78s-.87.98-1.45,1.33c-.57.34-1.17.57-1.85.66-.66.11-1.31.07-1.96-.09s-1.24-.44-1.77-.84-.98-.89-1.31-1.46c-.35-.57-.57-1.19-.67-1.85-.09-.67-.06-1.33.09-1.97.16-.66.44-1.25.84-1.78s.89-.98,1.45-1.31c.58-.35,1.19-.58,1.85-.67.67-.11,1.31-.06,1.97.09Z"/>
  <path class="cls-2" d="M63.87,16.68c.64.3,1.21.71,1.68,1.24.48.53.85,1.13,1.08,1.8.25.67.35,1.36.34,2.08-.03.71-.2,1.39-.5,2.05-.29.64-.7,1.21-1.24,1.69-.52.48-1.12.84-1.78,1.08-.66.25-1.36.35-2.06.32-.71-.03-1.39-.18-2.03-.48s-1.21-.71-1.69-1.24c-.48-.53-.84-1.13-1.08-1.8s-.35-1.36-.32-2.08.2-1.39.48-2.05c.3-.64.71-1.21,1.24-1.69.52-.48,1.12-.84,1.78-1.08s1.36-.35,2.08-.32c.7.03,1.37.18,2.03.48Z"/>
  <g class="cls-10">
    <path class="cls-4" d="M125.29,1.8c-.03.09-.05.18-.06.27-.48,1.86-2.33,2.99-4.18,2.53-1.73-.44-2.83-2.12-2.58-3.86,2.31.27,4.58.62,6.83,1.05h0Z"/>
  </g>
  <g class="cls-13">
    <path class="cls-6" d="M110.21,1.76c-.55,2.2-2.76,3.54-4.95,2.99-2.1-.53-3.4-2.58-3.04-4.69C103.43,0,104.64,0,105.85,0,107.31,0,108.8.03,110.26.09c.09.53.07,1.1-.06,1.67h0Z"/>
  </g>
  <g class="cls-8">
    <path class="cls-5" d="M92.1,3.33c-.67,2.7-3.4,4.35-6.09,3.68-2.09-.53-3.54-2.29-3.79-4.34,3.24-.75,6.53-1.33,9.87-1.77.2.76.2,1.6,0,2.42h0Z"/>
  </g>
  <path class="cls-2" d="M71.66,5.71c-.03.25-.07.51-.16.76-.71,2.25-3.63,3.62-6.51,3.05-.92-.18-1.73-.52-2.37-1.01,2.93-1.04,5.96-1.96,9.02-2.8h0Z"/>
</svg>