<?xml version="1.0" encoding="UTF-8"?>
<svg id="Layer_1" data-name="Layer 1" xmlns="http://www.w3.org/2000/svg" xmlns:xlink="http://www.w3.org/1999/xlink" viewBox="0 0 260.47 256.9">
  <defs>
    <style>
      .cls-1 {
        clip-path: url(#clippath-2);
      }

      .cls-2 {
        clip-path: url(#clippath-6);
      }

      .cls-3 {
        fill: none;
      }

      .cls-3, .cls-4, .cls-5, .cls-6, .cls-7, .cls-8 {
        stroke-width: 0px;
      }

      .cls-4 {
        fill: #f5fbff;
      }

      .cls-5 {
        fill: #31d8ff;
      }

      .cls-9 {
        clip-path: url(#clippath-1);
      }

      .cls-10 {
        clip-path: url(#clippath-4);
      }

      .cls-6 {
        fill: #1174a5;
      }

      .cls-7 {
        fill: #0ca6e2;
      }

      .cls-11 {
        clip-path: url(#clippath);
      }

      .cls-12 {
        clip-path: url(#clippath-3);
      }

      .cls-8 {
        fill: #fff;
      }

      .cls-13 {
        clip-path: url(#clippath-5);
      }
    </style>
    <clipPath id="clippath">
      <rect class="cls-3" y="131.51" width="115.81" height="33.3"/>
    </clipPath>
    <clipPath id="clippath-1">
      <rect class="cls-3" x="249.02" y="126.76" width="11.45" height="9.51"/>
    </clipPath>
    <clipPath id="clippath-2">
      <rect class="cls-3" x="106.3" y="226.66" width="104.66" height="30.24"/>
    </clipPath>
    <clipPath id="clippath-3">
      <rect class="cls-3" y="98.21" width="77.75" height="28.54"/>
    </clipPath>
    <clipPath id="clippath-4">
      <rect class="cls-3" x="139.6" y="0" width="14.27" height="7.82"/>
    </clipPath>
    <clipPath id="clippath-5">
      <rect class="cls-3" x="120.57" y="0" width="14.27" height="7.82"/>
    </clipPath>
    <clipPath id="clippath-6">
      <rect class="cls-3" x="96.78" y="0" width="19.03" height="12.58"/>
    </clipPath>
  </defs>
  <g class="cls-11">
    <path class="cls-8" d="M115.5,142.26c-1.12-6.52-7.28-10.91-13.79-9.79-43.78,7.56-80.91,4.72-101.63,1.78.33,5.91,1.06,11.71,2.16,17.38.74,3.9,3.96,6.84,7.88,7.19,12,1.12,28.75,2.3,37.06,2.38,15.91.17,35.4-1.1,58.59-5.09,6.49-1.13,10.85-7.32,9.74-13.84ZM103.53,151.75c-4.29-.06-7.73-3.59-7.69-7.88.06-4.31,3.57-7.77,7.86-7.73,4.29.06,7.73,3.59,7.67,7.88-.04,4.33-3.55,7.79-7.84,7.73Z"/>
  </g>
  <path class="cls-5" d="M240.19,83.81c0,1.12-.39,2.08-1.19,2.86-.78.8-1.73,1.19-2.84,1.19s-2.08-.39-2.86-1.19c-.8-.78-1.19-1.75-1.19-2.86s.39-2.08,1.19-2.88,1.75-1.19,2.86-1.19,2.06.41,2.84,1.19,1.19,1.77,1.19,2.88Z"/>
  <path class="cls-5" d="M258.05,103.77c0,1.21-.43,2.25-1.28,3.08-.85.85-1.88,1.28-3.07,1.28s-2.23-.43-3.08-1.28-1.26-1.88-1.26-3.08.43-2.23,1.26-3.08c.85-.85,1.88-1.28,3.08-1.28s2.21.43,3.07,1.28,1.28,1.88,1.28,3.08Z"/>
  <path class="cls-5" d="M250.78,73.66c0,.95-.32,1.75-.98,2.42s-1.47,1-2.42,1-1.73-.33-2.4-1-1-1.47-1-2.42.33-1.75,1-2.42,1.47-1,2.4-1,1.75.33,2.42,1,.98,1.47.98,2.42Z"/>
  <path class="cls-5" d="M220.96,89.93c.78.11,1.52.39,2.19.82.67.41,1.25.95,1.71,1.6s.8,1.38.98,2.14c.17.78.2,1.58.07,2.36-.13.8-.39,1.52-.82,2.21-.43.67-.95,1.25-1.6,1.71-.65.48-1.36.8-2.14.98-.76.19-1.54.2-2.34.07-.78-.11-1.51-.39-2.19-.82-.67-.41-1.25-.95-1.71-1.6s-.8-1.38-.98-2.14c-.17-.78-.2-1.58-.07-2.36.13-.8.41-1.52.82-2.21.43-.67.95-1.25,1.6-1.71.65-.48,1.36-.8,2.14-.98s1.56-.2,2.34-.07Z"/>
  <path class="cls-7" d="M205.61,111.37c0,1-.19,1.97-.58,2.9-.37.93-.93,1.75-1.64,2.47-.71.71-1.52,1.25-2.45,1.64-.91.39-1.88.58-2.88.58s-1.97-.19-2.9-.58-1.75-.93-2.45-1.64c-.71-.72-1.25-1.54-1.64-2.47s-.58-1.9-.58-2.9.19-1.97.58-2.92c.39-.93.93-1.75,1.64-2.45s1.52-1.26,2.45-1.65c.93-.37,1.9-.58,2.9-.58s1.97.2,2.88.58c.93.39,1.75.95,2.45,1.65s1.26,1.52,1.64,2.45c.39.95.58,1.91.58,2.92Z"/>
  <g class="cls-9">
    <path class="cls-6" d="M260.39,131.5c0,1.19-.41,2.19-1.25,3.03-.82.84-1.82,1.25-3.01,1.25s-2.17-.41-2.99-1.25c-.84-.84-1.25-1.84-1.25-3.03s.41-2.17,1.25-3.01c.82-.84,1.82-1.25,2.99-1.25s2.19.41,3.01,1.25c.84.84,1.25,1.84,1.25,3.01Z"/>
  </g>
  <path class="cls-6" d="M178.66,123.91c0,1.23-.24,2.4-.71,3.51-.46,1.13-1.12,2.14-1.99,2.99-.85.87-1.84,1.54-2.97,2.01-1.12.46-2.29.69-3.49.69s-2.4-.22-3.51-.69c-1.13-.46-2.12-1.13-2.97-2.01-.85-.85-1.52-1.86-1.99-2.99-.46-1.12-.71-2.29-.71-3.51s.24-2.4.71-3.53,1.13-2.12,1.99-2.99c.85-.85,1.84-1.52,2.97-1.99,1.12-.46,2.29-.71,3.51-.71s2.38.24,3.49.71c1.13.46,2.12,1.13,2.97,1.99s1.52,1.86,1.99,2.99.71,2.3.71,3.53Z"/>
  <path class="cls-8" d="M137.52,128c1.25.24,2.4.72,3.46,1.43,1.08.69,1.95,1.58,2.68,2.64.71,1.06,1.19,2.21,1.45,3.46.26,1.26.26,2.51.02,3.77-.24,1.25-.71,2.42-1.41,3.48-.69,1.08-1.58,1.97-2.62,2.68-1.06.72-2.21,1.21-3.46,1.47s-2.49.26-3.74.02c-1.26-.24-2.42-.71-3.48-1.41s-1.95-1.58-2.66-2.64c-.72-1.06-1.21-2.23-1.47-3.48s-.26-2.51-.02-3.75c.24-1.26.71-2.42,1.41-3.49.71-1.06,1.58-1.95,2.64-2.68,1.04-.71,2.19-1.21,3.44-1.47,1.25-.24,2.51-.26,3.75-.02Z"/>
  <path class="cls-8" d="M170.13,164.98c-1.64-7.51-9.57-11.78-16.84-9.35-85.19,28.62-146.1,10.76-146.1,10.76,0,0-.19.26-.45.71,2.29,7.32,5.2,14.36,8.7,21.07,2.04,3.9,5.76,6.69,10.09,7.4.04,0,.06,0,.07.02,8.53,1.39,65.69,5.97,134.97-15.35,6.69-2.06,11.02-8.44,9.55-15.26ZM157.9,175.74c-4.61.26-8.55-3.29-8.79-7.92-.26-4.63,3.27-8.59,7.88-8.83,4.59-.26,8.53,3.29,8.77,7.92.26,4.63-3.25,8.57-7.86,8.83Z"/>
  <path class="cls-7" d="M239.34,124.21c-3.98.87-7.58-2.36-7.15-6.43.28-2.47,2.12-4.53,4.53-5.07,3.98-.87,7.58,2.36,7.14,6.43-.26,2.47-2.12,4.53-4.52,5.07Z"/>
  <path class="cls-6" d="M227.01,134.69c.06,1.15-.11,2.29-.48,3.38-.39,1.1-.97,2.08-1.73,2.94-.78.87-1.69,1.56-2.73,2.06s-2.14.78-3.29.84c-1.15.07-2.29-.09-3.36-.48-1.1-.37-2.06-.97-2.94-1.73-.85-.78-1.54-1.69-2.04-2.73-.48-1.06-.78-2.16-.84-3.31-.06-1.17.09-2.3.48-3.38.37-1.1.97-2.08,1.73-2.95.78-.85,1.67-1.54,2.71-2.04,1.06-.5,2.16-.78,3.31-.85,1.15-.06,2.27.11,3.36.48,1.1.39,2.06.97,2.92,1.75.87.78,1.54,1.69,2.04,2.73s.78,2.16.85,3.31Z"/>
  <path class="cls-8" d="M191.61,140.84c1.39.2,2.69.65,3.92,1.38,1.23.71,2.25,1.64,3.1,2.77.85,1.12,1.47,2.38,1.82,3.74.35,1.38.45,2.77.26,4.18-.2,1.39-.65,2.71-1.36,3.94s-1.64,2.27-2.75,3.12c-1.13.85-2.38,1.47-3.74,1.82-1.38.37-2.75.45-4.14.26-1.41-.19-2.71-.65-3.94-1.36-1.21-.72-2.25-1.64-3.1-2.77s-1.47-2.38-1.82-3.75-.45-2.75-.24-4.16c.19-1.41.63-2.71,1.34-3.94.72-1.23,1.64-2.27,2.77-3.14,1.12-.85,2.36-1.45,3.72-1.82,1.38-.35,2.75-.45,4.16-.26Z"/>
  <path class="cls-4" d="M221.51,173.61c-3.16-7.01-11.74-9.4-18.42-5.61-69.09,39.27-142.5,38.93-178.48,35.16,3.98,5.61,8.42,10.89,13.23,15.78,4.59,4.68,10.74,7.49,17.26,7.97,34.27,2.51,96.3-.26,160.24-36.39,6.08-3.44,8.99-10.57,6.15-16.91ZM211.8,186.69c-4.44,1.21-9.03-1.41-10.24-5.89-1.23-4.46,1.41-9.07,5.85-10.3,4.44-1.21,9.03,1.43,10.24,5.89,1.21,4.48-1.41,9.09-5.85,10.3Z"/>
  <path class="cls-8" d="M244.22,164.2c-5.3,2.03-11.08-1.28-12.02-6.91-.69-4.14,1.67-8.33,5.59-9.83,5.31-2.03,11.08,1.3,12.02,6.91.71,4.16-1.67,8.33-5.59,9.83Z"/>
  <path class="cls-8" d="M247.4,174.72c-6.62,16.28-16.45,30.89-28.73,43.04-44.49,26.74-91.26,32.63-120.87,33.17-14.48-3.62-27.97-9.72-40.01-17.82,18.27,1.93,99.4,7.06,170.26-42.95,6.23-4.39,14.25-13.38,19.35-15.44Z"/>
  <g class="cls-1">
    <path class="cls-8" d="M210.27,228.59c-12.8,14.81-51.16,35.79-101.47,25.61,23.55,1.93,69-7.54,101.47-25.61Z"/>
  </g>
  <g class="cls-12">
    <path class="cls-8" d="M75.84,111.24c-.56-6.6-6.32-11.48-12.9-10.93-24.25,2.04-43.76,1.34-58.85-.45-1.39,6.13-2.34,12.41-2.82,18.82-.2,2.79,1.82,5.24,4.57,5.5.11.02.2.02.3.04,15.85,1.54,35.38,1.95,58.82-.04,6.56-.54,11.45-6.34,10.89-12.95ZM71.58,112.67c-.41,4.29-4.22,7.43-8.47,7.01-4.27-.41-7.4-4.22-6.99-8.51s4.22-7.43,8.49-7.01c4.26.41,7.38,4.22,6.97,8.51Z"/>
  </g>
  <path class="cls-5" d="M199.03,65.9c1.19.11,2.17.65,2.94,1.58s1.08,1.99.97,3.2c-.11,1.19-.63,2.17-1.56,2.94s-1.99,1.1-3.18.98c-1.19-.13-2.17-.65-2.94-1.58s-1.08-1.99-.97-3.2c.11-1.19.63-2.17,1.56-2.94.93-.78,1.99-1.1,3.18-.98Z"/>
  <path class="cls-5" d="M178.85,76.55c.71.19,1.34.48,1.91.93s1.06.98,1.41,1.6c.37.63.61,1.32.71,2.03.09.72.06,1.45-.13,2.14-.19.71-.5,1.36-.95,1.93-.43.58-.97,1.06-1.6,1.41-.61.37-1.28.61-2.01.71s-1.43.06-2.14-.13c-.69-.19-1.34-.5-1.91-.95-.58-.43-1.04-.97-1.41-1.6-.35-.63-.59-1.3-.69-2.03s-.06-1.43.13-2.14.5-1.34.93-1.93c.45-.58.98-1.04,1.6-1.41.63-.37,1.3-.59,2.03-.71.71-.09,1.43-.04,2.12.15Z"/>
  <path class="cls-7" d="M151.29,87.1c.85.09,1.65.33,2.42.74.76.39,1.41.93,1.95,1.6.56.67.95,1.41,1.19,2.23.26.84.33,1.67.26,2.53-.07.87-.33,1.67-.72,2.43-.41.76-.95,1.41-1.6,1.97-.67.54-1.41.95-2.23,1.19-.82.26-1.65.33-2.51.26-.85-.09-1.67-.33-2.43-.74-.74-.39-1.39-.93-1.95-1.6-.54-.67-.95-1.41-1.19-2.23-.26-.84-.33-1.67-.26-2.53.09-.85.33-1.67.74-2.43.39-.76.93-1.41,1.6-1.97.65-.54,1.39-.95,2.23-1.19.82-.26,1.65-.33,2.51-.26Z"/>
  <path class="cls-6" d="M123.13,95.39c1.06.11,2.04.41,2.97.91.95.5,1.75,1.15,2.42,1.97.67.84,1.15,1.75,1.47,2.77.32,1,.41,2.04.32,3.1-.11,1.06-.41,2.04-.91,2.99-.48.93-1.15,1.75-1.97,2.42s-1.73,1.17-2.73,1.47c-1,.32-2.04.43-3.1.32-1.04-.11-2.04-.41-2.97-.91-.93-.48-1.73-1.15-2.4-1.97s-1.17-1.73-1.47-2.75c-.32-1.02-.41-2.06-.32-3.1.11-1.06.41-2.06.89-2.99.5-.95,1.15-1.75,1.97-2.42.82-.69,1.73-1.17,2.75-1.49,1-.32,2.04-.41,3.08-.32Z"/>
  <path class="cls-8" d="M96.56,100.13c1.23.37,2.32.95,3.31,1.75s1.78,1.75,2.38,2.86c.61,1.13.98,2.32,1.12,3.59s.02,2.49-.33,3.72c-.37,1.23-.95,2.32-1.75,3.31-.78.98-1.75,1.78-2.84,2.4-1.12.61-2.3.98-3.57,1.12-1.25.13-2.49.02-3.7-.33-1.23-.37-2.32-.95-3.31-1.75s-1.77-1.75-2.38-2.86c-.59-1.12-.97-2.32-1.1-3.59-.15-1.26-.04-2.49.33-3.72.35-1.23.93-2.32,1.73-3.31s1.75-1.78,2.86-2.4c1.1-.61,2.29-.98,3.55-1.12s2.49-.02,3.7.33Z"/>
  <path class="cls-8" d="M49.19,67.44c-12.25.58-23.19.46-32.89-.09-3.74,6.91-6.86,14.23-9.29,21.85,12.4,1.08,26.78,1.47,43.24.69,6.19-.3,10.95-5.56,10.65-11.76s-5.54-10.98-11.71-10.69ZM56.87,79.31c-.54,4-4.2,6.8-8.18,6.28-4-.54-6.78-4.22-6.26-8.23.54-4,4.22-6.82,8.2-6.26,3.98.52,6.78,4.2,6.24,8.21Z"/>
  <path class="cls-5" d="M166.28,50.6c.65.2,1.23.52,1.77.95.52.45.95.95,1.26,1.56.32.59.52,1.25.58,1.91.07.69,0,1.36-.19,2.01-.2.65-.52,1.25-.95,1.77-.43.54-.95.95-1.54,1.28-.59.32-1.25.52-1.91.58-.69.07-1.34,0-1.99-.19-.65-.2-1.25-.52-1.77-.95-.52-.45-.95-.95-1.26-1.56-.33-.59-.52-1.25-.59-1.91-.06-.69,0-1.36.2-2.01.19-.65.5-1.25.93-1.77.45-.54.95-.95,1.56-1.28.59-.32,1.23-.52,1.91-.58.67-.07,1.34,0,1.99.19Z"/>
  <path class="cls-7" d="M135.62,58.11c.8.09,1.54.35,2.25.76.69.41,1.28.93,1.77,1.58.48.63.84,1.36,1.04,2.14s.26,1.56.15,2.36-.35,1.56-.76,2.25c-.41.71-.93,1.3-1.56,1.78-.65.5-1.36.85-2.14,1.06-.76.2-1.56.26-2.36.15s-1.54-.37-2.23-.78c-.71-.39-1.3-.93-1.78-1.56-.48-.65-.84-1.36-1.04-2.14s-.26-1.58-.15-2.38.37-1.54.76-2.25c.41-.71.93-1.3,1.56-1.78.65-.48,1.36-.84,2.14-1.04s1.56-.26,2.36-.15Z"/>
  <path class="cls-6" d="M106.82,63.57c.98.13,1.91.45,2.77.95s1.58,1.15,2.17,1.93c.61.8,1.04,1.67,1.28,2.64.26.95.32,1.93.19,2.92s-.45,1.91-.93,2.77c-.5.85-1.15,1.6-1.93,2.19-.78.61-1.65,1.04-2.62,1.28-.95.26-1.91.33-2.9.19-.98-.13-1.91-.45-2.77-.95-.85-.48-1.58-1.13-2.17-1.93-.61-.78-1.04-1.65-1.28-2.62-.26-.97-.32-1.93-.19-2.92s.45-1.91.95-2.77c.48-.87,1.13-1.6,1.91-2.19.8-.61,1.65-1.04,2.62-1.3.95-.26,1.93-.32,2.9-.19Z"/>
  <path class="cls-8" d="M81.19,69.37c.98.33,1.9.84,2.69,1.54.8.69,1.43,1.52,1.9,2.47s.74,1.95.82,3.01-.06,2.08-.39,3.08-.85,1.91-1.54,2.71c-.71.8-1.52,1.43-2.47,1.91-.93.46-1.93.74-2.99.82-1.04.07-2.08-.07-3.08-.41-.98-.33-1.9-.85-2.69-1.54-.78-.69-1.41-1.52-1.9-2.47-.46-.95-.74-1.95-.82-3.01s.06-2.08.41-3.08c.33-1,.84-1.91,1.54-2.71.69-.8,1.51-1.43,2.45-1.91.95-.46,1.93-.74,2.99-.82s2.08.06,3.08.41Z"/>
  <path class="cls-8" d="M45.03,41.09c-3.35-.06-6.58-.15-9.68-.3-5.35,5.76-10.2,12.02-14.44,18.69,7.28.71,15.24,1.15,23.84,1.26,5.41.07,9.85-4.26,9.92-9.7.07-5.43-4.26-9.89-9.64-9.96ZM51.09,51.87c-.69,3.48-4.03,5.72-7.49,5.04-3.44-.67-5.69-4.03-5.02-7.51.69-3.46,4.03-5.72,7.49-5.04s5.71,4.05,5.02,7.51Z"/>
  <path class="cls-5" d="M155.39,29.6c1.15.45,1.99,1.23,2.51,2.36s.56,2.27.13,3.44-1.21,2.01-2.34,2.53c-1.12.52-2.27.56-3.42.13-1.17-.43-2.01-1.21-2.53-2.34-.5-1.13-.56-2.29-.13-3.46.45-1.15,1.23-2.01,2.34-2.53,1.13-.52,2.27-.56,3.44-.13Z"/>
  <path class="cls-7" d="M128.71,36.33c.69.13,1.34.41,1.91.8.59.39,1.08.87,1.47,1.47.39.58.65,1.23.8,1.91.13.69.13,1.39,0,2.08s-.39,1.34-.78,1.93c-.39.58-.89,1.08-1.47,1.47-.59.39-1.23.67-1.91.8-.69.15-1.38.15-2.06,0-.71-.13-1.34-.39-1.93-.78-.58-.41-1.06-.89-1.45-1.47-.41-.59-.67-1.25-.8-1.93-.15-.69-.15-1.39,0-2.08.13-.69.39-1.34.78-1.91.39-.59.87-1.1,1.47-1.49.58-.39,1.21-.65,1.91-.8.69-.13,1.38-.13,2.06,0Z"/>
  <path class="cls-6" d="M103.62,39.55c.84.17,1.64.48,2.36.97.71.48,1.32,1.1,1.8,1.8.48.72.8,1.52.97,2.38.17.84.19,1.69.02,2.55s-.5,1.65-.98,2.38-1.08,1.32-1.78,1.8c-.72.48-1.51.82-2.36.98s-1.69.17-2.55,0-1.64-.48-2.36-.97-1.32-1.08-1.8-1.8-.82-1.52-.98-2.36c-.17-.85-.17-1.71,0-2.56s.48-1.65.97-2.38,1.08-1.32,1.8-1.8,1.51-.82,2.36-.98c.84-.17,1.69-.17,2.55,0Z"/>
  <path class="cls-8" d="M77.08,41.76c.95.37,1.78.93,2.51,1.65s1.28,1.54,1.69,2.49c.39.95.59,1.93.59,2.95.02,1.02-.17,2.01-.56,2.97-.37.95-.93,1.78-1.65,2.51-.71.74-1.54,1.3-2.47,1.69-.95.41-1.91.61-2.94.61-1.02.02-2.01-.17-2.95-.56s-1.78-.93-2.51-1.65-1.3-1.56-1.69-2.49c-.39-.95-.59-1.93-.61-2.95,0-1.04.19-2.03.58-2.97.37-.95.93-1.78,1.64-2.51.72-.74,1.54-1.3,2.49-1.71.93-.39,1.91-.59,2.94-.61,1.02,0,2.01.19,2.95.58Z"/>
  <path class="cls-8" d="M57.76,23.81c-.32,5.07-4.68,8.92-9.74,8.6-1.28-.09-2.55-.19-3.79-.28,4.24-3.75,8.72-7.23,13.44-10.41.11.67.13,1.38.09,2.08Z"/>
  <path class="cls-5" d="M150.02,13.45c1.08.45,1.82,1.23,2.25,2.3s.41,2.16-.04,3.23c-.46,1.06-1.23,1.82-2.3,2.25s-2.16.43-3.21-.04-1.82-1.23-2.25-2.32c-.43-1.08-.41-2.16.04-3.21.46-1.08,1.23-1.82,2.3-2.27,1.08-.43,2.16-.41,3.21.06Z"/>
  <path class="cls-7" d="M125.57,13.96c.63.17,1.23.45,1.75.84.54.39.97.87,1.3,1.45.35.56.58,1.17.67,1.84.09.65.06,1.3-.09,1.93-.17.65-.45,1.25-.84,1.77-.39.54-.87.97-1.43,1.32-.58.33-1.17.56-1.84.65-.65.11-1.28.07-1.93-.09-.63-.15-1.23-.43-1.75-.84-.54-.39-.97-.87-1.32-1.43-.33-.58-.56-1.19-.65-1.84s-.06-1.3.09-1.95c.17-.63.45-1.23.84-1.77.39-.52.87-.97,1.43-1.3.58-.35,1.17-.56,1.84-.67.65-.09,1.28-.06,1.93.09Z"/>
  <path class="cls-6" d="M101.95,15.78c.78.2,1.51.54,2.16,1.02s1.19,1.08,1.6,1.78c.43.69.69,1.45.8,2.25.13.82.09,1.62-.11,2.4-.19.8-.54,1.52-1.02,2.17s-1.06,1.19-1.77,1.62c-.69.41-1.43.69-2.25.8-.8.13-1.6.09-2.38-.11s-1.51-.54-2.16-1.02-1.19-1.08-1.6-1.78c-.43-.69-.69-1.45-.82-2.25-.11-.82-.07-1.62.11-2.4.2-.8.54-1.52,1.02-2.17s1.08-1.19,1.77-1.6c.71-.43,1.45-.71,2.25-.82.82-.13,1.6-.07,2.4.11Z"/>
  <path class="cls-8" d="M77.75,20.31c.78.37,1.47.87,2.04,1.51.59.65,1.04,1.38,1.32,2.19.3.82.43,1.65.41,2.53-.04.87-.24,1.69-.61,2.49-.35.78-.85,1.47-1.51,2.06-.63.58-1.36,1.02-2.17,1.32-.8.3-1.65.43-2.51.39-.87-.04-1.69-.22-2.47-.59s-1.47-.87-2.06-1.51c-.58-.65-1.02-1.38-1.32-2.19s-.43-1.65-.39-2.53.24-1.69.59-2.49c.37-.78.87-1.47,1.51-2.06.63-.58,1.36-1.02,2.17-1.32s1.65-.43,2.53-.39c.85.04,1.67.22,2.47.59Z"/>
  <g class="cls-10">
    <path class="cls-5" d="M152.51,2.19c-.04.11-.06.22-.07.33-.58,2.27-2.84,3.64-5.09,3.08-2.1-.54-3.44-2.58-3.14-4.7,2.81.33,5.58.76,8.31,1.28Z"/>
  </g>
  <g class="cls-13">
    <path class="cls-7" d="M134.15,2.14c-.67,2.68-3.36,4.31-6.02,3.64-2.56-.65-4.14-3.14-3.7-5.71,1.47-.06,2.94-.07,4.42-.07,1.78,0,3.59.04,5.37.11.11.65.09,1.34-.07,2.03Z"/>
  </g>
  <g class="cls-2">
    <path class="cls-6" d="M112.11,4.05c-.82,3.29-4.14,5.3-7.41,4.48-2.55-.65-4.31-2.79-4.61-5.28,3.94-.91,7.95-1.62,12.02-2.16.24.93.24,1.95,0,2.95Z"/>
  </g>
  <path class="cls-8" d="M87.23,6.95c-.04.39-.09.8-.19,1.19-.87,3.51-4.42,5.65-7.92,4.76-1.12-.28-2.1-.82-2.88-1.58,3.57-1.62,7.25-3.07,10.98-4.37Z"/>
</svg>